<?xml version="1.0" encoding="utf-8"?>
<!-- Generator: Adobe Illustrator 19.2.0, SVG Export Plug-In . SVG Version: 6.00 Build 0)  -->
<svg version="1.1" id="Capa_1" xmlns="http://www.w3.org/2000/svg" xmlns:xlink="http://www.w3.org/1999/xlink" x="0px" y="0px"
	 viewBox="0 0 132.7 162" style="enable-background:new 0 0 132.7 162;" xml:space="preserve">
<style type="text/css">
	.st0{fill:#F19820;}
	.st1{clip-path:url(#SVGID_2_);fill:#47574E;}
</style>
<path class="st0" d="M17.4,77.4c0,0-11.9,23.6-4.8,35.4s14.4,33.9,33.8,37.6c19.4,3.6,52.1-6.8,62.2-17c10.2-10.3,21.3-41-0.3-66.3
	C86.7,41.7,56.3,38.5,17.4,77.4z"/>
<g>
	<g>
		<defs>
			
				<rect id="SVGID_1_" x="33.6" y="29.2" transform="matrix(0.3249 -0.9457 0.9457 0.3249 9.2267 90.092)" width="68.2" height="18.8"/>
		</defs>
		<clipPath id="SVGID_2_">
			<use xlink:href="#SVGID_1_"  style="overflow:visible;"/>
		</clipPath>
		<path class="st1" d="M73.9,25.5L73.9,25.5l0.7-2.6h-0.1C74.3,23.8,74.1,24.6,73.9,25.5z M76.8,22.1h-0.2c-0.3,1.6-0.7,3.2-1,4.7
			h0.2C76.1,25.3,76.4,23.7,76.8,22.1z M56.5,68.8l0.2-0.1L55,64.8h-0.1C55.3,66.2,55.6,67.6,56.5,68.8z M78.1,21.2
			c-1.2,2.2-1.3,4.8-1.9,7.3l0.2,0.1L78.1,21.2z M71,28.6L71,28.6c0.1,0,0.2-0.1,0.2-0.1c0.2-0.7,0.5-1.4,0.7-2.1
			c0.5-2.3,1-4.6,1.9-6.8c0-0.1,0.1-0.2,0.1-0.4c-0.1,0.1-0.1,0.1-0.2,0.1c-0.5,1.1-1,2.2-1.4,3.4c-0.3,1-0.5,2.1-0.7,3.1
			C71.3,26.8,71.2,27.7,71,28.6z M84.9,9.1c0.3-0.1,0.5-0.2,0.8-0.3c0.2-0.1,0.5-0.1,0.7,0c0.1,0.1,0.1,0.4,0.2,0.6l0.3-0.1
			c0,0.1,0.1,0.1,0,0.2c-0.1,1.1-0.2,2.2-0.3,3.2c0,0.2-0.1,0.4-0.3,0.5c-1.9,1.3-3.7,2.9-5.2,4.7c-1.7,2.1-2.9,4.4-3.3,7.2
			c-0.6,3.9-2.1,7.4-4.5,10.6c-1.1,1.5-2.3,2.8-3.5,4.2c-1.6,1.8-3.3,3.5-4.9,5.4c-1.6,1.8-3.1,3.6-4.2,5.7c-0.8,1.5-1.3,3.2-1.3,5
			c-0.2,2.9-0.2,5.7,0.5,8.5c0.1,0.5,0.2,1,0.4,1.5c0.3,1.2,0.3,1.2,0.1,2.6l-0.5-0.3c-0.1,0.4-0.1,0.9-0.6,1.3
			c-0.1,0.1-0.2,0.3-0.3,0.4c-0.2,0.4-0.7,0.6-1.1,0.5c0,0,0,0-0.1,0c-0.5,0.4-1.1,0.5-1.5,0c-0.5-0.6-1-1.2-1.4-2
			c-2.4-4.5-2.9-9.3-1.8-14.2c0.5-2.1,1.5-4,2.8-5.7c2.3-3,4.6-5.9,6.9-8.8c2.3-2.8,4.4-5.7,6-9c0.7-1.5,1.1-3.1,1.4-4.7
			c0.3-1.7,0.6-3.4,1.1-5c1-3.1,2.9-5.6,5.3-7.7c1.7-1.5,3.7-2.6,5.8-3.5c0.6-0.3,1.2-0.6,1.8-1c0.1-0.1,0.2-0.1,0.3-0.1
			c0.2,0,0.5,0,0.7-0.1C84.9,8.7,84.9,8.9,84.9,9.1z"/>
	</g>
</g>
</svg>
