<?xml version="1.0" encoding="utf-8"?>
<!-- Generator: Adobe Illustrator 19.2.0, SVG Export Plug-In . SVG Version: 6.00 Build 0)  -->
<svg version="1.1" id="Capa_1" xmlns="http://www.w3.org/2000/svg" xmlns:xlink="http://www.w3.org/1999/xlink" x="0px" y="0px"
	 viewBox="0 0 82.7 82.7" style="enable-background:new 0 0 82.7 82.7;" xml:space="preserve">
<style type="text/css">
	.st0{fill:#F19820;}
	.st1{clip-path:url(#SVGID_2_);fill:#47574E;}
</style>
<path class="st0" d="M17.4,37.7c0,0-5.7,11.3-2.3,17s6.9,16.3,16.2,18c9.3,1.7,25-3.3,29.8-8.2c4.9-4.9,10.2-19.7-0.1-31.8
	C50.7,20.5,36.1,19,17.4,37.7z"/>
<g>
	<g>
		<g>
			<defs>
				
					<rect id="SVGID_1_" x="25.2" y="14.5" transform="matrix(0.3249 -0.9457 0.9457 0.3249 10.0594 52.1932)" width="32.7" height="9"/>
			</defs>
			<clipPath id="SVGID_2_">
				<use xlink:href="#SVGID_1_"  style="overflow:visible;"/>
			</clipPath>
			<path class="st1" d="M44.6,12.8L44.6,12.8l0.3-1.2h0C44.7,11.9,44.6,12.3,44.6,12.8z M45.9,11.1L45.9,11.1
				c-0.2,0.8-0.4,1.5-0.6,2.3h0.1C45.6,12.7,45.8,11.9,45.9,11.1z M36.2,33.5L36.2,33.5l-0.7-1.9h0C35.6,32.3,35.8,33,36.2,33.5z
				 M46.6,10.7c-0.6,1.1-0.6,2.3-0.9,3.5l0.1,0L46.6,10.7z M43.2,14.2L43.2,14.2C43.2,14.2,43.3,14.2,43.2,14.2
				c0.2-0.4,0.3-0.7,0.4-1.1c0.2-1.1,0.5-2.2,0.9-3.3c0,0,0-0.1,0-0.2c0,0,0,0-0.1,0c-0.2,0.5-0.5,1.1-0.7,1.6
				c-0.1,0.5-0.2,1-0.3,1.5C43.3,13.4,43.3,13.8,43.2,14.2z M49.8,4.9c0.1,0,0.2-0.1,0.4-0.1c0.1,0,0.2,0,0.3,0c0,0,0,0.2,0.1,0.3
				l0.1,0c0,0,0,0,0,0.1c0,0.5-0.1,1.1-0.1,1.5c0,0.1,0,0.2-0.1,0.2c-0.9,0.6-1.8,1.4-2.5,2.3c-0.8,1-1.4,2.1-1.6,3.5
				c-0.3,1.9-1,3.6-2.2,5.1c-0.5,0.7-1.1,1.3-1.7,2c-0.8,0.9-1.6,1.7-2.4,2.6c-0.8,0.9-1.5,1.7-2,2.7c-0.4,0.7-0.6,1.5-0.6,2.4
				c-0.1,1.4-0.1,2.7,0.2,4.1c0,0.2,0.1,0.5,0.2,0.7c0.1,0.6,0.1,0.6,0,1.2l-0.2-0.1c0,0.2,0,0.4-0.3,0.6c0,0-0.1,0.1-0.1,0.2
				c-0.1,0.2-0.3,0.3-0.5,0.2c0,0,0,0,0,0c-0.2,0.2-0.5,0.2-0.7,0c-0.2-0.3-0.5-0.6-0.7-1c-1.2-2.2-1.4-4.5-0.9-6.8
				c0.2-1,0.7-1.9,1.3-2.7c1.1-1.4,2.2-2.8,3.3-4.2c1.1-1.3,2.1-2.7,2.9-4.3c0.3-0.7,0.5-1.5,0.7-2.3c0.1-0.8,0.3-1.6,0.5-2.4
				C43.8,9.2,44.7,8,45.8,7c0.8-0.7,1.8-1.2,2.8-1.7c0.3-0.1,0.6-0.3,0.9-0.5c0,0,0.1,0,0.1,0c0.1,0,0.2,0,0.3,0
				C49.8,4.7,49.8,4.8,49.8,4.9z"/>
		</g>
	</g>
</g>
</svg>
